<?xml version="1.0" standalone="no"?>
<!DOCTYPE svg PUBLIC "-//W3C//DTD SVG 20010904//EN"
 "http://www.w3.org/TR/2001/REC-SVG-20010904/DTD/svg10.dtd">
<svg version="1.0" xmlns="http://www.w3.org/2000/svg"
 width="880.000000pt" height="950.000000pt" viewBox="0 0 880.000000 950.000000"
 preserveAspectRatio="xMidYMid meet">

<g transform="translate(0.000000,950.000000) scale(0.100000,-0.100000)"
fill="#000000" stroke="none">
<path d="M4085 9080 c-333 -21 -741 -77 -859 -119 -97 -34 -152 -88 -176 -171
-6 -19 -21 -159 -35 -310 -51 -559 -79 -706 -171 -880 -47 -90 -148 -187 -247
-236 -237 -119 -404 -316 -484 -571 l-28 -88 0 -1955 0 -1955 28 -90 c37 -116
98 -232 169 -321 71 -89 119 -129 271 -228 161 -106 244 -186 295 -284 90
-174 123 -350 172 -917 21 -241 28 -280 59 -331 47 -76 128 -111 343 -149 634
-111 1394 -111 1972 1 159 31 227 56 278 102 68 61 80 100 98 312 20 239 40
432 60 570 56 388 140 528 421 701 185 113 292 225 374 392 76 155 88 215 93
489 4 224 5 238 23 238 35 0 39 31 37 267 -1 125 -3 202 -5 170 -3 -34 -8 -55
-14 -52 -5 4 -9 3 -8 -2 1 -4 1 -54 0 -110 -1 -83 -4 -103 -16 -103 -12 0 -15
40 -17 263 -5 426 0 577 17 577 12 0 15 16 15 77 0 42 2 74 5 72 2 -3 8 -57
11 -120 4 -63 8 -116 10 -118 2 -2 4 63 4 145 0 90 -4 143 -9 135 -5 -8 -16
-11 -27 -7 -9 4 -21 2 -24 -5 -4 -6 -5 13 -2 42 4 46 3 51 -12 46 -14 -5 -17
-2 -14 15 5 35 36 35 40 1 3 -32 21 -38 26 -9 2 10 -3 23 -12 28 -18 10 -21
34 -7 43 5 3 17 -2 25 -11 9 -8 16 -12 16 -7 0 15 -23 33 -42 33 -17 0 -18 18
-18 314 l0 314 71 4 c65 3 74 7 99 35 29 32 29 34 44 210 2 30 0 41 -8 36 -6
-3 -6 0 2 8 6 7 12 19 12 27 0 10 -4 10 -22 -2 -27 -19 -51 -21 -45 -3 2 6 11
12 19 12 20 0 48 24 48 41 0 10 -6 11 -26 4 -14 -6 -41 -10 -60 -10 -27 0 -37
-5 -44 -22 -9 -23 -9 -23 -10 2 -1 23 -2 23 -10 5 -5 -11 -9 -15 -9 -10 -1 6
-6 3 -11 -5 -6 -9 -10 -10 -10 -3 0 6 5 15 10 18 6 4 8 11 4 16 -3 5 -11 6
-17 2 -23 -14 -39 -12 -33 5 5 15 4 15 -8 0 -15 -20 -36 -24 -36 -7 0 5 5 7
12 3 7 -4 8 -3 4 5 -9 14 -26 5 -26 -15 0 -9 -5 -12 -12 -8 -6 4 -8 3 -4 -4 4
-7 17 -8 35 -2 22 6 28 5 27 -6 -1 -7 -6 -17 -11 -21 -4 -4 -5 -2 -1 5 5 8 0
12 -14 12 -12 0 -19 -4 -16 -8 3 -5 -1 -9 -9 -9 -8 0 -13 2 -10 5 2 2 -2 11
-10 19 -8 8 -16 29 -16 46 -2 30 -2 30 -9 -8 -5 -26 -7 5 -8 90 0 81 3 122 8
110 6 -14 9 6 10 60 2 146 16 203 56 236 10 8 15 9 11 3 -3 -6 0 -11 7 -11 8
0 12 5 10 11 -3 7 14 11 45 11 27 0 47 -3 45 -6 -2 -4 14 -9 34 -13 22 -3 47
-16 58 -28 l19 -23 -21 18 c-26 22 -94 35 -94 18 0 -6 9 -11 21 -11 30 0 86
-29 94 -48 5 -13 3 -13 -14 2 -22 20 -101 34 -101 19 0 -6 17 -13 38 -16 40
-7 82 -32 82 -49 0 -6 -8 -4 -17 5 -21 17 -92 27 -93 12 -1 -5 17 -14 40 -20
23 -5 53 -21 67 -35 23 -21 25 -22 19 -5 -5 11 -8 34 -7 50 3 47 -19 111 -46
136 -19 19 -38 24 -93 27 l-68 4 -4 247 c-5 275 -16 338 -82 478 -95 199 -231
335 -444 442 -146 74 -250 199 -300 361 -38 123 -76 378 -107 715 -32 349 -42
389 -101 449 -16 16 -53 40 -83 54 -92 42 -386 94 -696 122 -155 14 -653 20
-820 10z m1028 -1686 c659 -4 784 -6 837 -19 14 -3 37 -8 53 -10 15 -2 33 -8
40 -12 6 -4 20 -9 30 -10 25 -4 130 -54 138 -66 3 -5 9 -8 13 -8 16 1 35 -12
29 -22 -3 -6 -1 -7 6 -3 13 9 73 -38 63 -49 -4 -4 0 -5 8 -3 18 4 72 -46 62
-58 -4 -4 2 -4 12 0 15 5 17 4 7 -8 -10 -12 -4 -21 34 -52 25 -21 45 -44 45
-51 0 -7 4 -13 9 -13 5 0 11 -10 13 -22 2 -13 9 -22 16 -20 6 1 11 -1 11 -5
-4 -20 15 -72 27 -77 8 -3 11 -12 7 -22 -5 -13 -3 -15 7 -9 9 6 11 4 6 -4 -5
-7 -15 -10 -23 -7 -8 3 -11 1 -8 -4 3 -6 16 -10 28 -11 13 0 16 -3 8 -6 -8 -3
-9 -8 -3 -12 11 -6 15 -25 13 -54 -1 -11 -6 -15 -13 -11 -7 4 -8 3 -4 -5 6 -8
12 -9 20 -2 9 8 13 7 13 -4 0 -8 -5 -15 -11 -15 -6 0 -5 -4 3 -9 19 -12 26
-91 9 -92 -7 0 -4 -4 7 -9 18 -8 18 -9 -5 -10 -25 -1 -25 -1 -2 -10 12 -5 22
-12 22 -15 0 -4 -4 -3 -10 0 -5 3 -10 -1 -10 -10 0 -10 5 -14 13 -9 10 6 10 4
0 -7 -15 -15 -18 -33 -5 -25 5 3 9 -1 9 -9 0 -8 -4 -12 -9 -9 -4 3 -8 0 -8 -5
0 -6 6 -11 13 -12 9 0 9 -2 -1 -6 -10 -4 -10 -10 3 -29 11 -17 12 -22 2 -18
-8 3 -14 -2 -14 -10 0 -8 4 -13 9 -10 4 3 8 0 8 -5 0 -6 -3 -11 -8 -11 -12 0
-6 -81 7 -90 10 -5 9 -9 -4 -14 -9 -3 -13 -11 -10 -17 4 -6 14 -8 22 -4 13 4
14 3 3 -10 -7 -8 -17 -12 -24 -8 -6 3 -2 -4 9 -17 11 -13 14 -20 8 -16 -7 4
-13 2 -13 -3 0 -6 5 -11 10 -11 7 0 7 -7 0 -20 -6 -11 -9 -24 -6 -29 3 -4 -3
-25 -14 -46 -11 -21 -27 -72 -37 -114 -25 -106 -25 -415 0 -515 19 -77 57
-159 90 -195 l22 -24 -21 11 c-19 10 -22 8 -27 -13 -2 -14 0 -28 5 -31 5 -3 4
-11 -2 -19 -8 -10 -8 -15 0 -20 6 -4 7 -12 2 -18 -7 -11 -8 -29 -2 -42 8 -16
4 -151 -5 -157 -6 -5 -5 -8 4 -8 11 0 11 -3 0 -17 -10 -11 -10 -14 -1 -9 7 4
12 1 12 -9 0 -10 -5 -13 -12 -9 -7 5 -8 3 -3 -7 14 -22 15 -60 2 -52 -8 4 -7
1 1 -9 9 -12 10 -18 2 -23 -8 -5 -8 -11 1 -21 9 -11 8 -14 -2 -14 -9 0 -10 -3
-4 -8 12 -8 13 -22 2 -39 -4 -6 -3 -14 2 -17 10 -7 9 -25 -2 -43 -4 -6 -3 -15
3 -18 8 -5 8 -11 0 -20 -8 -10 -8 -15 1 -20 8 -6 7 -10 -2 -16 -11 -7 -11 -9
-1 -9 8 0 10 -5 6 -12 -10 -16 -11 -67 -1 -61 5 3 7 15 5 28 -3 12 0 22 7 22
9 0 10 -11 3 -41 -5 -23 -10 -111 -12 -196 -1 -86 -5 -161 -9 -167 -4 -7 -3
-14 3 -18 5 -3 10 -11 10 -16 0 -6 -4 -8 -9 -5 -5 4 -8 -2 -6 -11 2 -10 4 -18
5 -18 2 0 4 -17 5 -37 1 -23 -2 -38 -9 -38 -7 0 -8 -3 -1 -8 14 -9 14 -105 1
-114 -12 -8 -17 -130 -6 -123 4 3 6 16 5 30 -2 14 0 25 4 25 4 0 7 -16 7 -35
-1 -24 -6 -35 -16 -35 -13 0 -13 -1 0 -10 14 -8 15 -36 6 -96 -2 -10 2 -26 8
-34 10 -13 9 -13 -6 -1 -10 7 -18 10 -19 5 -4 -60 -3 -92 3 -88 4 3 8 0 8 -5
0 -6 -4 -11 -8 -11 -7 0 -9 -56 -2 -70 6 -11 5 -36 -1 -45 -7 -10 -12 -48 -10
-73 1 -8 6 -10 14 -6 6 4 3 -3 -8 -16 -11 -13 -14 -20 -7 -16 6 4 12 2 12 -3
0 -6 -6 -11 -12 -12 -8 0 -9 -2 -2 -5 6 -2 9 -18 6 -34 -3 -19 -8 -27 -16 -23
-6 3 -2 -4 9 -17 11 -13 15 -21 9 -17 -8 5 -11 -11 -9 -53 1 -33 -1 -57 -6
-54 -4 2 -6 12 -3 22 5 14 4 15 -5 2 -7 -11 -6 -21 5 -37 12 -20 12 -27 -1
-55 -8 -18 -12 -23 -9 -10 3 14 1 22 -7 22 -7 0 -9 -3 -6 -6 3 -4 2 -16 -4
-27 -6 -10 -7 -17 -1 -14 5 4 18 0 28 -8 18 -13 18 -14 -2 -9 -12 3 -24 1 -28
-4 -3 -5 0 -9 7 -8 6 0 12 -3 12 -9 0 -5 -6 -9 -15 -7 -8 1 -4 -4 10 -12 14
-9 20 -15 13 -16 -7 0 -10 -7 -7 -17 5 -15 4 -16 -5 -3 -11 16 -13 12 -13 -32
-1 -15 -4 -26 -7 -24 -3 3 -6 36 -5 75 0 40 -3 68 -8 65 -5 -4 -4 4 4 15 11
18 11 23 0 30 -11 7 -11 9 2 14 9 4 13 13 10 22 -3 8 -9 13 -13 11 -4 -3 -6 8
-5 22 1 15 -4 34 -10 42 -9 13 -9 13 6 2 12 -10 18 -10 24 -1 4 8 3 9 -4 5 -7
-4 -12 -2 -12 3 0 19 -2 26 -11 42 -4 9 -6 19 -2 22 9 9 10 138 1 143 -13 8
-9 44 5 44 8 0 9 2 1 8 -7 4 -12 46 -12 107 -1 55 -3 237 -4 405 -2 183 -5 35
-8 -370 -4 -479 -6 -213 -8 914 -1 1251 1 1593 11 1605 9 12 9 13 0 7 -9 -5
-13 1 -13 19 0 14 4 24 9 21 8 -5 8 22 1 32 -6 6 -5 30 1 55 5 18 4 27 -4 28
-9 0 -8 2 0 6 10 3 10 10 2 25 -8 15 -8 19 0 14 6 -4 11 -3 11 3 0 5 -5 13
-10 16 -8 5 -7 11 1 21 6 8 8 14 4 14 -4 0 -2 6 4 14 8 9 8 16 2 20 -6 4 -7
15 -1 30 5 15 5 27 -3 35 -8 8 -7 11 4 11 12 0 12 2 -1 10 -13 9 -13 10 0 10
13 0 13 1 0 10 -13 9 -13 10 0 10 13 0 13 1 0 10 -8 5 -10 10 -4 10 7 0 9 11
6 25 -2 14 1 31 7 39 8 10 9 16 1 21 -15 9 -13 48 3 39 10 -6 10 -4 0 7 -7 7
-13 17 -13 22 0 4 6 5 13 2 6 -4 3 1 -7 9 -15 12 -16 16 -5 17 8 0 9 2 3 5 -7
3 -10 14 -7 24 3 13 0 20 -8 20 -11 0 -11 2 1 10 11 7 11 10 2 10 -7 0 -10 5
-7 10 3 6 0 10 -7 10 -9 0 -9 3 2 10 12 7 12 10 1 10 -8 0 -11 6 -7 16 3 8 2
12 -4 9 -6 -3 -11 1 -11 9 -3 30 -4 34 -13 43 -5 5 -6 2 -1 -6 6 -10 4 -12 -4
-7 -9 6 -9 11 -1 21 8 10 5 17 -12 29 -12 9 -19 16 -15 16 5 0 -4 15 -18 34
-15 19 -26 37 -26 40 1 3 -2 6 -5 5 -4 0 -12 10 -19 23 -6 13 -17 22 -24 20
-7 -1 -10 2 -6 8 3 5 -1 13 -9 16 -9 3 -13 11 -9 17 3 5 1 7 -5 3 -6 -3 -13 3
-17 14 -4 11 -10 18 -15 15 -5 -3 -13 3 -19 12 -6 10 -11 14 -11 9 0 -4 -9 2
-20 15 -10 13 -19 20 -20 16 0 -5 -13 1 -29 13 -17 12 -32 16 -36 11 -3 -6 8
-17 24 -26 16 -8 33 -20 36 -26 4 -6 -12 2 -36 17 -24 15 -79 41 -124 58 l-80
31 -1550 3 c-1444 2 -1555 1 -1625 -15 -41 -9 -91 -18 -110 -19 -47 -1 -61 -6
-84 -26 -11 -10 -23 -18 -28 -18 -4 0 -8 -4 -8 -9 0 -6 27 4 61 20 33 17 62
29 64 27 2 -2 -31 -21 -73 -43 -53 -27 -99 -61 -147 -109 -38 -39 -74 -69 -78
-68 -5 1 -6 -2 -3 -7 3 -5 -6 -29 -20 -53 -25 -41 -26 -40 -8 7 7 20 6 20 -13
-1 -11 -11 -26 -30 -32 -42 -7 -13 -15 -21 -19 -18 -4 2 -8 -3 -9 -12 -1 -9
-4 -26 -6 -37 -3 -11 -6 -21 -6 -23 -1 -2 -5 0 -11 3 -6 4 -4 15 6 30 10 16
12 25 4 30 -6 3 -10 3 -9 -2 3 -18 -2 -34 -9 -29 -4 2 -8 -6 -8 -20 0 -13 3
-24 7 -24 4 0 2 -12 -6 -27 -8 -15 -12 -30 -9 -35 3 -4 -1 -5 -9 -2 -8 3 -18
0 -22 -6 -3 -6 -3 -10 2 -9 22 4 47 -2 37 -9 -6 -4 -10 -34 -9 -69 1 -34 -3
-59 -7 -57 -5 3 -6 -6 -2 -21 9 -37 9 -76 -1 -99 -5 -12 -3 -21 6 -27 13 -8 5
-13 -15 -10 -5 1 -4 -5 3 -13 7 -8 10 -20 6 -26 -3 -5 -1 -10 5 -10 6 0 8 -5
5 -10 -4 -6 -11 -8 -16 -5 -5 3 -6 -1 -3 -9 3 -9 11 -13 17 -9 6 4 7 1 1 -8
-13 -21 -16 -51 -4 -44 6 3 7 -1 4 -9 -3 -9 -10 -14 -15 -11 -9 6 -5 -18 7
-49 6 -15 4 -17 -7 -11 -11 6 -12 5 -1 -6 6 -7 12 -21 12 -32 0 -12 -4 -16
-12 -11 -10 6 -10 5 -1 -7 10 -12 10 -18 0 -29 -9 -10 -9 -11 1 -6 7 5 12 1
12 -9 0 -10 -5 -14 -12 -9 -10 6 -10 4 0 -7 6 -7 12 -17 12 -22 0 -4 -6 -5
-12 -1 -9 5 -9 2 1 -9 13 -16 8 -22 -14 -17 -5 1 -2 -7 8 -18 18 -20 23 -37 8
-27 -5 3 -13 0 -17 -6 -4 -8 -3 -9 4 -5 7 4 12 4 13 -1 6 -46 4 -63 -5 -63 -6
0 -5 -4 2 -9 8 -4 14 -12 14 -16 0 -4 -6 -12 -14 -16 -10 -7 -10 -9 0 -9 6 0
12 -5 12 -11 0 -5 -5 -7 -12 -3 -7 5 -8 3 -2 -7 12 -19 12 -32 0 -48 -8 -11
-8 -13 2 -7 6 4 12 2 12 -3 0 -6 -4 -11 -9 -11 -14 0 -21 -29 -9 -36 6 -4 8
-3 4 4 -3 6 -3 13 2 16 16 9 9 -29 -7 -42 -9 -8 -11 -11 -4 -8 6 4 14 2 18 -4
3 -5 -2 -10 -12 -11 -16 0 -16 -1 2 -9 13 -6 15 -9 5 -9 -9 -1 -11 -4 -5 -9
12 -8 14 -127 3 -138 -11 -10 -10 -26 0 -20 10 6 9 -50 -1 -60 -3 -4 -1 -16 5
-28 10 -20 10 -20 -7 -6 -17 14 -17 14 -2 -16 9 -18 12 -35 7 -40 -5 -5 -5
-28 -1 -52 5 -24 5 -45 -1 -48 -5 -3 -5 -11 1 -18 11 -13 -4 -45 -16 -33 -4 5
-1 12 7 17 9 6 10 10 3 10 -20 0 -27 -22 -11 -34 9 -6 14 -24 13 -41 -1 -17 3
-36 9 -44 8 -11 8 -13 0 -8 -12 7 -26 -15 -28 -43 -1 -8 -4 -20 -8 -26 -6 -9
-5 -36 2 -54 1 -3 2 -9 1 -13 -1 -5 3 -6 9 -2 6 3 7 12 3 18 -12 19 -13 46 -3
52 6 4 8 11 5 16 -4 5 0 9 7 9 9 0 9 3 -2 10 -8 5 -10 10 -4 10 20 0 23 -13 9
-40 -8 -15 -12 -29 -10 -31 11 -12 13 -59 2 -59 -8 0 -7 -3 2 -9 15 -10 7 -31
-12 -31 -7 0 -6 4 3 11 13 9 13 10 0 6 -15 -4 -24 -84 -10 -92 4 -3 7 5 6 17
0 12 4 23 9 25 12 4 14 -92 2 -103 -9 -10 -9 -26 1 -20 4 2 8 -4 8 -14 0 -10
-4 -16 -8 -14 -4 3 -8 1 -8 -5 0 -5 4 -12 9 -16 13 -8 8 -60 -8 -79 -10 -12
-17 -14 -27 -5 -8 6 -14 8 -14 3 0 -5 -4 -3 -9 5 -13 20 9 54 25 40 7 -6 10
-18 7 -27 -3 -9 -3 -14 1 -11 11 11 15 45 5 60 -7 12 -9 12 -9 0 0 -11 -4 -9
-15 5 -11 14 -14 15 -9 3 3 -10 1 -19 -4 -22 -4 -4 -8 23 -7 59 1 36 -2 67 -7
70 -4 3 -5 11 -1 17 12 18 11 90 -1 106 -8 11 -8 13 1 7 12 -7 12 7 -2 77 -2
9 1 17 6 17 9 0 13 -15 10 -33 -1 -5 3 -6 9 -2 6 3 7 11 4 17 -4 6 -8 21 -9
32 -1 12 -6 39 -10 61 -13 57 -12 68 4 88 8 9 11 17 7 17 -4 0 -2 9 5 21 6 12
7 25 2 30 -5 5 -10 0 -11 -11 -4 -42 -5 -50 -10 -45 -3 3 -6 79 -6 170 -1 137
1 164 13 160 11 -4 12 -3 1 10 -10 12 -10 18 1 33 12 15 12 16 -2 5 -14 -11
-16 -8 -15 26 0 22 4 37 8 35 4 -3 8 -1 8 5 0 5 -5 13 -10 16 -6 4 -8 11 -4
16 3 6 12 5 22 -3 15 -12 16 -11 3 4 -7 10 -17 16 -21 13 -11 -7 -6 119 5 127
6 5 5 8 -4 8 -11 0 -11 3 0 17 8 9 9 14 3 10 -7 -4 -14 0 -18 8 -3 8 -1 17 5
21 6 4 6 11 -2 20 -9 11 -8 15 5 20 15 6 15 7 0 19 -12 8 -13 14 -6 19 6 4 8
14 5 23 -5 12 -3 14 8 8 11 -6 12 -5 2 5 -10 11 -9 18 5 34 16 20 16 20 -1 7
-16 -13 -17 -11 -13 23 3 20 2 35 -3 32 -4 -3 -5 8 -3 24 3 19 8 27 16 23 6
-4 5 1 -3 10 -7 9 -11 26 -8 37 3 11 1 23 -4 26 -5 3 -5 12 0 22 5 9 5 26 0
37 -11 28 -11 43 1 25 8 -13 10 -13 10 2 0 9 -5 20 -10 23 -7 4 -7 12 -2 18 7
11 8 24 2 45 -2 8 -2 145 0 152 1 3 1 19 1 35 -2 23 0 27 8 15 7 -9 11 -10 11
-3 0 6 -4 14 -10 18 -5 3 -7 12 -4 20 4 8 10 13 14 10 4 -3 11 2 14 11 3 8 11
12 17 8 8 -4 9 -3 5 4 -5 9 -13 9 -29 1 -19 -8 -20 -8 -7 3 15 13 22 31 23 55
0 6 6 9 13 6 6 -2 15 1 19 7 3 6 3 9 -2 8 -4 -2 -8 2 -8 7 0 6 3 9 8 7 4 -1 5
9 1 23 -4 15 -2 25 5 25 6 0 8 -7 4 -17 -4 -10 -2 -14 4 -10 6 4 13 1 16 -5 2
-7 2 9 -1 36 -3 31 -1 47 5 43 5 -3 9 3 8 13 -1 23 -11 36 -13 18 0 -7 -5 -26
-11 -43 -10 -28 -11 -28 -5 10 3 22 10 45 15 52 7 7 6 13 0 17 -5 4 -6 18 -2
34 5 15 7 35 5 44 -1 10 2 20 7 24 5 3 9 11 9 17 0 7 -4 6 -10 -3 -14 -22 -12
-3 3 22 13 24 33 48 93 113 20 22 33 33 29 25 -4 -8 7 1 24 20 18 19 29 28 26
20 -4 -10 -2 -10 8 2 11 14 16 15 27 5 8 -7 10 -8 7 -1 -4 7 7 13 31 17 20 3
51 11 67 18 17 7 32 13 35 14 3 1 23 9 45 19 67 30 113 45 119 39 3 -4 6 -2 6
3 0 6 10 10 23 11 28 1 64 10 79 19 7 5 8 3 3 -6 -6 -9 -4 -11 5 -5 20 12 264
17 937 19 321 0 583 5 583 9 0 5 5 5 11 2 5 -4 317 -9 692 -11z m771 -173 c3
-5 20 -8 38 -6 18 1 25 0 16 -2 -10 -2 -18 -8 -18 -13 0 -5 6 -7 13 -5 15 6
30 -4 46 -30 11 -19 12 -18 7 5 -3 14 -3 19 0 12 3 -6 10 -9 16 -6 5 4 5 -4
-2 -16 -8 -16 -15 -19 -22 -12 -8 8 -17 8 -31 1 -14 -8 -18 -8 -13 0 5 7 -1
10 -16 7 -13 -3 -24 -5 -25 -6 -10 -7 -86 -3 -90 4 -4 5 0 6 7 1 9 -6 11 -4 5
5 -6 10 -11 9 -22 -5 -13 -18 -13 -18 -13 0 0 18 0 18 -13 0 -11 -14 -16 -15
-22 -5 -6 9 -4 11 6 5 8 -5 10 -4 6 0 -10 11 -39 16 -32 5 3 -4 -2 -10 -10
-14 -8 -3 -17 0 -21 6 -5 7 -2 8 6 3 9 -6 11 -4 5 5 -6 10 -11 9 -22 -5 -12
-18 -13 -18 -13 -1 0 16 -1 16 -16 1 -15 -14 -19 -14 -39 -1 -21 14 -25 14
-36 0 -10 -13 -14 -12 -32 3 -11 10 -17 13 -14 7 10 -18 -20 -25 -34 -8 -10
12 -15 12 -28 2 -14 -12 -35 -14 -89 -9 -7 0 -10 7 -7 14 4 6 -1 3 -9 -7 -15
-18 -16 -18 -16 -2 0 16 -1 16 -16 1 -15 -15 -18 -15 -41 1 -14 9 -23 11 -19
6 11 -18 -18 -20 -38 -3 -11 9 -16 11 -13 4 11 -18 -16 -22 -37 -4 -11 9 -16
10 -12 4 4 -8 2 -13 -6 -14 -7 -1 -20 -2 -28 -3 -8 -1 -24 5 -34 14 -11 9 -16
10 -12 3 4 -7 4 -13 -1 -14 -4 0 -18 -2 -31 -3 -13 -2 -27 4 -32 13 -8 14 -9
13 -10 -3 0 -19 0 -19 -13 -1 -11 14 -16 15 -22 5 -6 -9 -4 -11 5 -5 9 6 11 4
5 -5 -6 -10 -11 -9 -22 5 -13 18 -13 18 -13 0 0 -18 -1 -18 -16 1 -8 10 -13
14 -10 8 8 -15 -21 -26 -30 -12 -5 7 -2 8 7 3 8 -5 10 -4 6 0 -10 12 -38 15
-31 4 3 -5 -1 -10 -8 -10 -7 -1 -20 -2 -28 -3 -8 -1 -24 3 -35 8 -27 13 -46
16 -40 6 3 -4 -2 -10 -10 -14 -8 -3 -17 0 -21 6 -5 7 -2 8 6 3 9 -6 11 -4 5 5
-6 10 -11 9 -22 -5 -13 -18 -13 -18 -13 1 -1 17 -1 17 -11 2 -5 -9 -16 -15
-24 -12 -8 4 -13 9 -10 13 2 4 -2 8 -10 8 -8 0 -12 -4 -9 -9 8 -13 -10 -10
-25 5 -11 10 -13 10 -7 0 8 -15 8 -15 -57 -17 -34 -1 -51 3 -58 14 -7 12 -8
11 -9 -5 0 -16 -2 -17 -9 -6 -5 8 -17 16 -25 17 -9 1 -14 -2 -10 -7 3 -5 10
-6 16 -3 6 4 8 3 5 -2 -9 -15 -77 -9 -88 7 -7 11 -9 10 -9 -5 0 -19 0 -19 -13
-1 -11 14 -16 15 -22 5 -6 -9 -4 -11 5 -5 9 6 11 4 5 -5 -6 -10 -11 -9 -22 5
-13 18 -13 18 -13 0 0 -18 -1 -18 -16 1 -8 10 -13 14 -10 8 8 -15 -21 -26 -30
-12 -5 7 -2 8 7 3 8 -5 10 -4 6 0 -10 12 -38 15 -31 4 3 -5 -1 -10 -8 -10 -7
-1 -20 -2 -28 -3 -8 -1 -24 3 -35 8 -27 13 -46 16 -40 6 3 -4 -2 -10 -10 -14
-8 -3 -17 0 -21 6 -5 7 -2 8 6 3 9 -6 11 -4 5 5 -6 10 -11 9 -22 -5 -13 -18
-13 -18 -13 1 -1 17 -2 17 -10 3 -11 -19 -53 -17 -77 3 -12 9 -15 9 -9 1 8
-15 8 -15 -57 -17 -34 -1 -51 3 -58 14 -7 12 -8 11 -9 -5 0 -16 -2 -17 -9 -6
-5 8 -17 16 -25 17 -9 1 -14 -2 -10 -7 3 -5 10 -6 16 -3 6 4 8 3 5 -2 -9 -15
-77 -9 -88 7 -7 11 -9 10 -9 -5 0 -19 0 -19 -13 -1 -11 14 -16 15 -22 5 -6 -9
-4 -11 5 -5 9 6 11 4 5 -5 -6 -10 -11 -9 -22 5 -13 18 -13 18 -13 0 0 -18 -1
-18 -16 1 -8 10 -13 14 -10 8 8 -15 -21 -26 -30 -12 -5 7 -2 8 7 3 8 -5 10 -4
6 0 -10 12 -38 15 -31 4 3 -5 -1 -10 -8 -10 -7 -1 -20 -2 -28 -3 -8 -1 -24 3
-35 8 -27 13 -46 16 -40 6 3 -4 -2 -10 -10 -14 -8 -3 -17 0 -21 6 -5 7 -2 8 6
3 9 -6 11 -4 5 5 -6 10 -11 9 -22 -5 -13 -18 -13 -18 -13 1 -1 17 -1 17 -11 2
-5 -9 -16 -15 -24 -12 -8 4 -13 9 -10 13 2 4 -2 8 -10 8 -8 0 -12 -4 -10 -8 3
-4 -2 -9 -10 -13 -8 -3 -17 0 -21 6 -5 7 -2 8 6 3 9 -6 11 -4 5 5 -6 10 -11 9
-22 -5 -12 -18 -13 -18 -13 -1 0 16 -1 16 -17 1 -15 -15 -18 -15 -27 -2 -10
12 -13 12 -24 1 -10 -11 -17 -12 -35 -2 -28 15 -49 19 -41 7 3 -5 2 -9 -3 -10
-4 0 -19 -2 -31 -3 -14 -2 -26 4 -29 12 -5 12 -8 11 -15 -3 -9 -15 -12 -15
-33 -1 -20 14 -25 14 -36 0 -10 -13 -14 -12 -32 3 -11 10 -17 12 -13 6 4 -8 2
-13 -6 -14 -7 -1 -20 -2 -28 -3 -8 -1 -23 2 -32 7 -12 5 -18 4 -18 -5 0 -7 -9
1 -20 17 -11 17 -20 25 -20 18 0 -6 5 -15 11 -19 19 -11 -13 -24 -33 -13 -13
7 -18 6 -18 -3 0 -10 -2 -10 -9 1 -6 9 -11 10 -15 2 -4 -6 -12 -9 -17 -5 -6 4
-6 11 2 20 6 7 15 12 19 9 5 -3 16 3 26 12 16 16 17 16 12 1 -4 -10 0 -22 10
-30 15 -11 15 -11 5 2 -15 20 -1 45 21 37 9 -4 16 -2 16 3 0 6 5 10 11 10 5 0
7 -6 3 -12 -6 -10 -4 -10 7 0 7 6 17 12 22 12 4 0 5 -6 1 -12 -6 -10 -4 -10 7
-2 8 6 22 10 31 9 10 -2 20 0 23 5 2 4 -8 6 -23 5 -15 -1 -36 1 -47 6 -11 4
649 8 1467 8 860 1 1489 -3 1492 -8z m-3011 -8 c-7 -2 -19 -2 -25 0 -7 3 -2 5
12 5 14 0 19 -2 13 -5z m-56 -9 c-3 -3 -12 -4 -19 -1 -8 3 -5 6 6 6 11 1 17
-2 13 -5z m3190 0 c-3 -3 -12 -4 -19 -1 -8 3 -5 6 6 6 11 1 17 -2 13 -5z m20
-49 c0 -8 -4 -12 -9 -9 -5 3 -6 10 -3 15 9 13 12 11 12 -6z m238 -45 c10 -11
16 -20 13 -20 -3 0 -13 9 -23 20 -10 11 -16 20 -13 20 3 0 13 -9 23 -20z m183
-20 c17 -27 10 -25 -19 6 -13 14 -17 23 -9 19 9 -3 21 -14 28 -25z m-141 3
c-4 -3 3 -18 15 -32 l23 -26 -27 24 c-24 21 -29 41 -11 41 4 0 3 -3 0 -7z m84
-115 c31 -43 17 -34 -21 15 -19 23 -26 36 -17 28 10 -8 27 -27 38 -43z m54
-89 c9 -17 15 -33 13 -35 -3 -2 -12 12 -21 31 -21 43 -13 47 8 4z m52 -151
c-3 -8 -6 -5 -6 6 -1 11 2 17 5 13 3 -3 4 -12 1 -19z m10 -50 c-3 -8 -6 -5 -6
6 -1 11 2 17 5 13 3 -3 4 -12 1 -19z m-547 -1938 l0 -1950 -1560 0 -1560 0 0
1950 0 1950 1560 0 1560 0 0 -1950z m557 1843 c-2 -16 -4 -5 -4 22 0 28 2 40
4 28 2 -13 2 -35 0 -50z m0 -75 c-3 -8 -6 -5 -6 6 -1 11 2 17 5 13 3 -3 4 -12
1 -19z m124 -151 c-10 -9 -11 -8 -5 6 3 10 9 15 12 12 3 -3 0 -11 -7 -18z m24
-187 c-10 -11 -21 -17 -24 -14 -3 3 3 12 13 20 28 20 32 17 11 -6z m188 -17
c-7 -2 -19 -2 -25 0 -7 3 -2 5 12 5 14 0 19 -2 13 -5z m-99 -548 c-20 -30 -20
-30 -20 -6 0 11 4 18 7 15 4 -2 10 0 14 6 3 5 8 10 11 10 2 0 -3 -11 -12 -25z
m-4587 -550 c0 -8 -4 -12 -9 -9 -5 3 -6 10 -3 15 9 13 12 11 12 -6z m83 -150
c0 -2 -9 -9 -20 -15 -12 -6 -20 -7 -20 -1 0 5 8 12 18 14 9 3 18 5 20 6 1 0 2
-1 2 -4z m-61 -297 c-1 -1 3 -14 10 -27 12 -22 12 -24 -8 -18 -11 3 -21 1 -21
-5 0 -6 11 -8 25 -6 17 4 25 1 25 -9 0 -9 5 -11 13 -7 9 6 9 4 -1 -8 -9 -11
-10 -18 -2 -23 6 -4 7 -13 1 -23 -13 -25 -11 -73 3 -65 6 4 5 -1 -3 -10 -10
-13 -11 -20 -2 -31 9 -10 8 -16 -4 -26 -14 -12 -14 -15 2 -33 10 -11 13 -17 6
-14 -13 8 -12 -30 2 -52 5 -10 4 -12 -3 -7 -15 9 -16 -15 -2 -32 7 -9 7 -9 -2
-2 -19 15 -32 12 -18 -5 7 -8 9 -15 4 -15 -5 0 -2 -5 6 -10 13 -9 13 -10 0
-11 -8 -1 -18 -1 -21 -1 -3 1 -6 -6 -6 -14 0 -10 4 -11 11 -4 5 5 13 10 16 10
8 0 5 -103 -3 -117 -4 -7 -3 -14 2 -18 7 -4 7 -15 1 -31 -13 -34 -12 -47 3
-38 9 6 9 4 -1 -8 -10 -13 -10 -17 0 -21 9 -4 9 -6 1 -6 -6 -1 -15 4 -18 9 -3
6 -11 10 -16 10 -6 0 -7 -6 -2 -12 4 -7 6 -24 5 -38 -2 -25 -2 -25 8 -2 5 12
12 22 14 22 3 0 2 -10 -2 -22 -7 -20 -8 -88 -2 -95 2 -2 3 -7 4 -12 0 -5 4
-13 8 -17 4 -4 3 -13 -3 -20 -6 -8 -9 -20 -5 -29 3 -8 0 -14 -6 -12 -6 1 -12
-3 -15 -10 -3 -8 3 -11 17 -8 18 4 20 2 9 -11 -11 -13 -14 -13 -27 0 -12 12
-13 18 -3 30 7 8 10 25 7 38 -3 13 -3 17 0 10 3 -6 10 -9 15 -6 6 3 5 11 -2
20 -8 10 -15 11 -24 4 -8 -7 -12 -5 -12 5 0 7 3 13 6 12 3 -1 7 3 9 8 1 6 -2
10 -7 10 -5 0 -13 3 -17 7 -3 4 3 6 15 3 14 -2 21 1 21 11 0 8 -4 13 -9 9 -5
-3 -12 -1 -15 4 -4 5 -3 12 1 14 10 6 9 59 -1 75 -4 7 -1 15 8 18 9 3 16 14
16 23 0 14 -2 14 -11 1 -9 -13 -10 -13 -6 0 2 8 10 14 16 12 6 -1 11 5 11 14
0 15 -3 14 -27 -2 -18 -11 -24 -12 -16 -3 14 17 14 30 2 45 -5 6 -3 18 6 30
16 22 19 35 6 32 -5 -2 -9 2 -9 7 0 6 4 9 9 7 5 -1 9 5 9 14 0 8 -4 13 -9 9
-5 -3 -12 -1 -15 4 -4 5 -2 13 4 16 6 4 8 15 5 25 -3 10 1 24 8 32 9 8 11 21
6 33 -7 19 -10 18 -13 -4 0 -5 -4 -12 -8 -16 -10 -11 -3 21 8 36 6 8 9 20 8
27 -1 6 -2 19 -3 28 -1 9 -6 12 -13 8 -10 -6 -10 -4 0 7 13 14 17 33 4 25 -4
-2 -8 13 -7 35 0 21 4 39 9 39 4 0 6 -9 3 -20 -3 -11 -1 -20 5 -20 6 0 8 -6 5
-13 -3 -8 4 -14 20 -15 14 -1 22 2 18 8 -4 6 -11 8 -16 5 -5 -4 -9 -2 -9 4 0
5 5 13 10 16 6 4 7 12 1 23 -5 10 -5 26 0 40 10 27 6 38 -9 28 -6 -3 -8 -15
-5 -25 3 -10 0 -22 -6 -25 -6 -4 -11 -2 -11 4 0 6 -5 8 -12 4 -7 -4 -8 -3 -4
5 4 6 12 9 17 6 12 -8 -2 28 -15 37 -8 5 -7 8 1 8 7 0 10 9 7 23 -12 52 -12
66 1 61 10 -4 12 1 8 18 -3 13 -3 20 1 16 4 -3 7 -8 5 -10z m48 -3 c0 -8 -4
-12 -9 -9 -4 3 -8 0 -8 -5 0 -6 4 -11 8 -11 5 0 9 -7 9 -17 0 -12 -5 -11 -19
8 -19 22 -19 24 -2 36 22 16 21 16 21 -2z m-34 -190 c4 -8 2 -17 -3 -20 -6 -4
-10 3 -10 14 0 25 6 27 13 6z m4507 -311 c0 -8 -19 -13 -24 -6 -3 5 1 9 9 9 8
0 15 -2 15 -3z m-27 -56 c-2 -5 2 -8 10 -8 7 0 14 -7 14 -15 0 -9 -4 -11 -11
-6 -8 6 -11 0 -11 -20 0 -25 2 -27 11 -14 10 14 12 12 10 -9 0 -13 -4 -22 -9
-19 -4 2 -11 -6 -16 -19 -6 -16 -8 5 -8 66 0 49 4 80 8 70 3 -11 5 -22 2 -26z
m22 -117 c3 -5 2 -12 -3 -15 -5 -3 -9 1 -9 9 0 17 3 19 12 6z m-4520 -270 c3
-5 2 -12 -3 -15 -5 -3 -9 1 -9 9 0 17 3 19 12 6z m32 -33 c2 -16 0 -19 -6 -9
-5 7 -15 10 -22 7 -8 -4 -5 0 5 8 11 9 20 16 21 16 0 0 2 -10 2 -22z m4431
-33 c-3 -3 -9 2 -12 12 -6 14 -5 15 5 6 7 -7 10 -15 7 -18z m-4448 9 c0 -8
-19 -13 -24 -6 -3 5 1 9 9 9 8 0 15 -2 15 -3z m16 -46 l19 -23 -22 18 c-12 11
-27 16 -34 11 -8 -4 -10 -3 -5 4 10 17 21 15 42 -10z m4438 14 c3 -5 -1 -9 -9
-9 -8 0 -12 4 -9 9 3 4 7 8 9 8 2 0 6 -4 9 -8z m-4443 -39 c13 -17 13 -17 -6
-3 -11 8 -22 16 -24 17 -2 2 0 3 6 3 6 0 17 -8 24 -17z m-17 -12 c3 -5 -2 -15
-12 -22 -15 -12 -16 -12 -5 2 7 9 10 19 6 22 -3 4 -4 7 0 7 3 0 8 -4 11 -9z
m4463 -4 c0 -8 -6 -14 -14 -14 -9 0 -10 4 -2 14 6 7 12 13 14 13 1 0 2 -6 2
-13z m-4446 -20 c-6 -8 -7 -18 -3 -22 4 -5 1 -5 -6 -1 -10 6 -10 11 -1 22 6 8
14 14 16 14 3 0 0 -6 -6 -13z m-17 -43 c3 -8 2 -12 -4 -9 -6 3 -10 10 -10 16
0 14 7 11 14 -7z m4463 -26 c-3 -8 -6 -5 -6 6 -1 11 2 17 5 13 3 -3 4 -12 1
-19z m-4440 -3 c0 -8 -4 -12 -9 -9 -5 3 -6 10 -3 15 9 13 12 11 12 -6z m-28
-39 c9 -11 9 -16 -1 -22 -7 -4 -10 -4 -6 1 4 4 3 14 -3 22 -6 7 -9 13 -6 13 2
0 10 -6 16 -14z m4569 -28 c2 -8 -4 -15 -13 -15 -8 0 -15 9 -15 20 0 22 23 18
28 -5z m-4538 -2 c0 -2 -6 -9 -14 -15 -11 -9 -16 -9 -22 0 -4 7 -3 9 4 5 6 -3
13 -2 17 4 6 10 15 14 15 6z m-9 -53 c13 -16 12 -17 -3 -4 -10 7 -18 15 -18
17 0 8 8 3 21 -13z"/>
<path d="M6124 7206 c24 -19 36 -20 36 -4 0 6 -3 8 -6 5 -4 -3 -16 -2 -28 4
-20 10 -20 10 -2 -5z"/>
<path d="M2235 6761 c-3 -5 -1 -12 5 -16 5 -3 10 1 10 9 0 18 -6 21 -15 7z"/>
<path d="M2196 6703 c-6 -14 -5 -15 5 -6 7 7 10 15 7 18 -3 3 -9 -2 -12 -12z"/>
<path d="M2230 6691 c0 -6 4 -13 10 -16 6 -3 7 1 4 9 -7 18 -14 21 -14 7z"/>
<path d="M6595 6690 c-3 -6 1 -7 9 -4 18 7 21 14 7 14 -6 0 -13 -4 -16 -10z"/>
<path d="M6611 6644 c0 -11 3 -14 6 -6 3 7 2 16 -1 19 -3 4 -6 -2 -5 -13z"/>
<path d="M2235 6631 c-3 -5 -2 -12 3 -15 5 -3 9 1 9 9 0 17 -3 19 -12 6z"/>
<path d="M2166 5742 c-3 -5 1 -9 9 -9 8 0 12 4 9 9 -3 4 -7 8 -9 8 -2 0 -6 -4
-9 -8z"/>
<path d="M2229 5608 c-6 -20 -6 -39 0 -42 4 -3 7 6 7 20 0 20 -4 32 -7 22z"/>
<path d="M2170 5506 c0 -2 8 -10 18 -17 15 -13 16 -12 3 4 -13 16 -21 21 -21
13z"/>
<path d="M2163 5435 c0 -8 4 -12 9 -9 5 3 6 10 3 15 -9 13 -12 11 -12 -6z"/>
<path d="M2166 5378 c3 -5 10 -6 15 -3 13 9 11 12 -6 12 -8 0 -12 -4 -9 -9z"/>
<path d="M2223 5375 c0 -8 4 -12 9 -9 5 3 6 10 3 15 -9 13 -12 11 -12 -6z"/>
<path d="M2163 5325 c0 -8 4 -12 9 -9 5 3 6 10 3 15 -9 13 -12 11 -12 -6z"/>
<path d="M2217 5306 c-3 -8 2 -20 11 -27 14 -11 15 -11 5 0 -6 7 -9 20 -6 27
3 8 3 14 0 14 -3 0 -7 -6 -10 -14z"/>
<path d="M2200 5271 c0 -6 4 -13 10 -16 6 -3 7 1 4 9 -7 18 -14 21 -14 7z"/>
<path d="M2171 5173 c9 -9 8 -13 0 -13 -7 0 -9 -5 -4 -12 4 -7 8 -16 8 -20 0
-3 2 -9 5 -11 3 -3 5 11 5 32 0 23 -4 38 -12 38 -9 0 -10 -4 -2 -14z"/>
<path d="M2205 5160 c-3 -6 1 -7 9 -4 18 7 21 14 7 14 -6 0 -13 -4 -16 -10z"/>
<path d="M2209 5113 c-13 -16 -12 -17 4 -4 9 7 17 15 17 17 0 8 -8 3 -21 -13z"/>
<path d="M2171 4985 c0 -5 3 -17 9 -25 6 -9 5 -17 -3 -22 -8 -5 -9 -8 -1 -8 6
0 18 8 25 17 12 14 12 15 0 9 -10 -7 -12 -3 -6 15 4 17 3 20 -3 10 -8 -11 -10
-11 -15 0 -3 8 -6 10 -6 4z"/>
<path d="M2177 4905 c-4 -8 -3 -16 1 -19 4 -3 9 4 9 15 2 23 -3 25 -10 4z"/>
<path d="M2179 4865 c-1 -3 -2 -8 -3 -12 -1 -5 -5 -13 -9 -20 -4 -6 -3 -14 3
-18 6 -4 7 -11 4 -17 -4 -7 -2 -8 5 -4 8 6 9 12 2 20 -6 7 -8 16 -4 20 8 8 13
36 7 36 -2 0 -5 -2 -5 -5z"/>
<path d="M2206 4831 c-14 -5 -16 -10 -7 -15 9 -6 9 -11 1 -21 -8 -9 -8 -15 0
-20 6 -4 9 -1 8 7 -2 7 2 12 8 11 5 -1 10 9 10 23 0 13 0 24 0 23 -1 0 -10 -4
-20 -8z"/>
<path d="M2173 4766 c0 -8 3 -15 6 -14 18 2 24 -3 13 -11 -11 -6 -10 -10 4
-15 10 -4 15 -4 11 0 -4 4 -1 14 5 23 7 9 8 13 3 8 -4 -4 -16 0 -25 8 -14 13
-17 13 -17 1z"/>
<path d="M2175 4660 c-3 -5 -1 -10 4 -10 6 0 11 5 11 10 0 6 -2 10 -4 10 -3 0
-8 -4 -11 -10z"/>
<path d="M6531 4334 c0 -11 3 -14 6 -6 3 7 2 16 -1 19 -3 4 -6 -2 -5 -13z"/>
<path d="M6628 3754 c-7 -6 1 -66 9 -74 3 -3 3 12 0 32 -3 23 0 39 7 42 7 3 7
5 0 5 -6 1 -13 -2 -16 -5z"/>
<path d="M6614 3459 c-3 -6 -2 -15 3 -20 5 -5 9 -1 9 11 0 23 -2 24 -12 9z"/>
<path d="M6595 3161 c-3 -5 -2 -12 3 -15 5 -3 9 1 9 9 0 17 -3 19 -12 6z"/>
<path d="M6595 3060 c-3 -5 -1 -10 4 -10 6 0 11 5 11 10 0 6 -2 10 -4 10 -3 0
-8 -4 -11 -10z"/>
<path d="M3036 7208 c3 -5 10 -6 15 -3 13 9 11 12 -6 12 -8 0 -12 -4 -9 -9z"/>
<path d="M3093 7203 c0 -9 4 -10 14 -2 7 6 13 12 13 14 0 1 -6 2 -13 2 -8 0
-14 -6 -14 -14z"/>
<path d="M3153 7203 c0 -9 4 -10 14 -2 7 6 13 12 13 14 0 1 -6 2 -13 2 -8 0
-14 -6 -14 -14z"/>
<path d="M3213 7203 c0 -9 4 -10 14 -2 7 6 13 12 13 14 0 1 -6 2 -13 2 -8 0
-14 -6 -14 -14z"/>
<path d="M3246 7203 c-6 -14 -5 -15 5 -6 7 7 10 15 7 18 -3 3 -9 -2 -12 -12z"/>
<path d="M3270 7215 c0 -2 6 -8 13 -14 10 -8 14 -7 14 2 0 8 -6 14 -14 14 -7
0 -13 -1 -13 -2z"/>
<path d="M3316 7208 c3 -5 10 -6 15 -3 13 9 11 12 -6 12 -8 0 -12 -4 -9 -9z"/>
<path d="M3373 7203 c0 -9 4 -10 14 -2 7 6 13 12 13 14 0 1 -6 2 -13 2 -8 0
-14 -6 -14 -14z"/>
<path d="M3406 7203 c-6 -14 -5 -15 5 -6 7 7 10 15 7 18 -3 3 -9 -2 -12 -12z"/>
<path d="M3436 7208 c3 -5 10 -6 15 -3 13 9 11 12 -6 12 -8 0 -12 -4 -9 -9z"/>
<path d="M3493 7203 c0 -9 4 -10 14 -2 7 6 13 12 13 14 0 1 -6 2 -13 2 -8 0
-14 -6 -14 -14z"/>
<path d="M3553 7203 c0 -9 4 -10 14 -2 7 6 13 12 13 14 0 1 -6 2 -13 2 -8 0
-14 -6 -14 -14z"/>
<path d="M3586 7203 c-6 -14 -5 -15 5 -6 7 7 10 15 7 18 -3 3 -9 -2 -12 -12z"/>
<path d="M3616 7208 c3 -5 10 -6 15 -3 13 9 11 12 -6 12 -8 0 -12 -4 -9 -9z"/>
<path d="M3676 7208 c3 -5 10 -6 15 -3 13 9 11 12 -6 12 -8 0 -12 -4 -9 -9z"/>
<path d="M3733 7203 c0 -9 4 -10 14 -2 7 6 13 12 13 14 0 1 -6 2 -13 2 -8 0
-14 -6 -14 -14z"/>
<path d="M3793 7203 c0 -9 4 -10 14 -2 7 6 13 12 13 14 0 1 -6 2 -13 2 -8 0
-14 -6 -14 -14z"/>
<path d="M3853 7203 c0 -9 4 -10 14 -2 7 6 13 12 13 14 0 1 -6 2 -13 2 -8 0
-14 -6 -14 -14z"/>
<path d="M3913 7203 c0 -9 4 -10 14 -2 7 6 13 12 13 14 0 1 -6 2 -13 2 -8 0
-14 -6 -14 -14z"/>
<path d="M3956 7208 c3 -5 10 -6 15 -3 13 9 11 12 -6 12 -8 0 -12 -4 -9 -9z"/>
<path d="M4013 7203 c0 -9 4 -10 14 -2 7 6 13 12 13 14 0 1 -6 2 -13 2 -8 0
-14 -6 -14 -14z"/>
<path d="M4046 7203 c-6 -14 -5 -15 5 -6 7 7 10 15 7 18 -3 3 -9 -2 -12 -12z"/>
<path d="M4076 7208 c3 -5 10 -6 15 -3 13 9 11 12 -6 12 -8 0 -12 -4 -9 -9z"/>
<path d="M4133 7203 c0 -9 4 -10 14 -2 7 6 13 12 13 14 0 1 -6 2 -13 2 -8 0
-14 -6 -14 -14z"/>
<path d="M4193 7203 c0 -9 4 -10 14 -2 7 6 13 12 13 14 0 1 -6 2 -13 2 -8 0
-14 -6 -14 -14z"/>
<path d="M4226 7203 c-6 -14 -5 -15 5 -6 7 7 10 15 7 18 -3 3 -9 -2 -12 -12z"/>
<path d="M4256 7208 c3 -5 10 -6 15 -3 13 9 11 12 -6 12 -8 0 -12 -4 -9 -9z"/>
<path d="M4316 7208 c3 -5 10 -6 15 -3 13 9 11 12 -6 12 -8 0 -12 -4 -9 -9z"/>
<path d="M4373 7203 c0 -9 4 -10 14 -2 7 6 13 12 13 14 0 1 -6 2 -13 2 -8 0
-14 -6 -14 -14z"/>
<path d="M4433 7203 c0 -9 4 -10 14 -2 7 6 13 12 13 14 0 1 -6 2 -13 2 -8 0
-14 -6 -14 -14z"/>
<path d="M4493 7203 c0 -9 4 -10 14 -2 7 6 13 12 13 14 0 1 -6 2 -13 2 -8 0
-14 -6 -14 -14z"/>
<path d="M4553 7203 c0 -9 4 -10 14 -2 7 6 13 12 13 14 0 1 -6 2 -13 2 -8 0
-14 -6 -14 -14z"/>
<path d="M4596 7208 c3 -5 10 -6 15 -3 13 9 11 12 -6 12 -8 0 -12 -4 -9 -9z"/>
<path d="M4653 7203 c0 -9 4 -10 14 -2 7 6 13 12 13 14 0 1 -6 2 -13 2 -8 0
-14 -6 -14 -14z"/>
<path d="M4686 7203 c-6 -14 -5 -15 5 -6 7 7 10 15 7 18 -3 3 -9 -2 -12 -12z"/>
<path d="M4716 7208 c3 -5 10 -6 15 -3 13 9 11 12 -6 12 -8 0 -12 -4 -9 -9z"/>
<path d="M4773 7203 c0 -9 4 -10 14 -2 7 6 13 12 13 14 0 1 -6 2 -13 2 -8 0
-14 -6 -14 -14z"/>
<path d="M4833 7203 c0 -9 4 -10 14 -2 7 6 13 12 13 14 0 1 -6 2 -13 2 -8 0
-14 -6 -14 -14z"/>
<path d="M4866 7203 c-6 -14 -5 -15 5 -6 7 7 10 15 7 18 -3 3 -9 -2 -12 -12z"/>
<path d="M4896 7208 c3 -5 10 -6 15 -3 13 9 11 12 -6 12 -8 0 -12 -4 -9 -9z"/>
<path d="M4956 7208 c3 -5 10 -6 15 -3 13 9 11 12 -6 12 -8 0 -12 -4 -9 -9z"/>
<path d="M5013 7203 c0 -9 4 -10 14 -2 7 6 13 12 13 14 0 1 -6 2 -13 2 -8 0
-14 -6 -14 -14z"/>
<path d="M5073 7203 c0 -9 4 -10 14 -2 7 6 13 12 13 14 0 1 -6 2 -13 2 -8 0
-14 -6 -14 -14z"/>
<path d="M5116 7208 c3 -5 10 -6 15 -3 13 9 11 12 -6 12 -8 0 -12 -4 -9 -9z"/>
<path d="M5146 7203 c-6 -14 -5 -15 5 -6 7 7 10 15 7 18 -3 3 -9 -2 -12 -12z"/>
<path d="M5170 7215 c0 -2 6 -8 13 -14 10 -8 14 -7 14 2 0 8 -6 14 -14 14 -7
0 -13 -1 -13 -2z"/>
<path d="M5216 7208 c3 -5 10 -6 15 -3 13 9 11 12 -6 12 -8 0 -12 -4 -9 -9z"/>
<path d="M5246 7203 c-6 -14 -5 -15 5 -6 7 7 10 15 7 18 -3 3 -9 -2 -12 -12z"/>
<path d="M5276 7208 c3 -5 10 -6 15 -3 13 9 11 12 -6 12 -8 0 -12 -4 -9 -9z"/>
<path d="M5306 7203 c-6 -14 -5 -15 5 -6 7 7 10 15 7 18 -3 3 -9 -2 -12 -12z"/>
<path d="M5333 7203 c0 -9 4 -10 14 -2 7 6 13 12 13 14 0 1 -6 2 -13 2 -8 0
-14 -6 -14 -14z"/>
<path d="M5393 7203 c0 -9 4 -10 14 -2 7 6 13 12 13 14 0 1 -6 2 -13 2 -8 0
-14 -6 -14 -14z"/>
<path d="M5426 7203 c-6 -14 -5 -15 5 -6 7 7 10 15 7 18 -3 3 -9 -2 -12 -12z"/>
<path d="M5456 7208 c3 -5 10 -6 15 -3 13 9 11 12 -6 12 -8 0 -12 -4 -9 -9z"/>
<path d="M5490 7211 c0 -6 4 -13 10 -16 6 -3 7 1 4 9 -7 18 -14 21 -14 7z"/>
<path d="M5516 7208 c3 -5 10 -6 15 -3 13 9 11 12 -6 12 -8 0 -12 -4 -9 -9z"/>
<path d="M5576 7208 c3 -5 10 -6 15 -3 13 9 11 12 -6 12 -8 0 -12 -4 -9 -9z"/>
<path d="M5633 7203 c0 -9 4 -10 14 -2 7 6 13 12 13 14 0 1 -6 2 -13 2 -8 0
-14 -6 -14 -14z"/>
<path d="M5666 7203 c-6 -14 -5 -15 5 -6 7 7 10 15 7 18 -3 3 -9 -2 -12 -12z"/>
<path d="M5690 7215 c0 -2 6 -8 13 -14 10 -8 14 -7 14 2 0 8 -6 14 -14 14 -7
0 -13 -1 -13 -2z"/>
<path d="M5736 7208 c3 -5 10 -6 15 -3 13 9 11 12 -6 12 -8 0 -12 -4 -9 -9z"/>
<path d="M5766 7203 c-6 -14 -5 -15 5 -6 7 7 10 15 7 18 -3 3 -9 -2 -12 -12z"/>
<path d="M5796 7209 c2 -4 12 -6 22 -4 9 1 23 -3 31 -9 11 -8 13 -8 7 2 -4 7
-1 12 9 12 9 0 14 -4 10 -9 -3 -5 -1 -12 4 -15 5 -4 8 2 7 11 -2 14 -13 18
-49 18 -25 0 -44 -3 -41 -6z"/>
<path d="M5946 7177 c3 -10 9 -15 12 -12 3 3 0 11 -7 18 -10 9 -11 8 -5 -6z"/>
<path d="M2940 7176 c0 -2 8 -10 18 -17 15 -13 16 -12 3 4 -13 16 -21 21 -21
13z"/>
<path d="M3226 7158 c3 -5 10 -6 15 -3 13 9 11 12 -6 12 -8 0 -12 -4 -9 -9z"/>
<path d="M3546 7158 c3 -5 10 -6 15 -3 13 9 11 12 -6 12 -8 0 -12 -4 -9 -9z"/>
<path d="M3934 7162 c4 -3 14 -7 22 -8 9 -1 13 0 10 4 -4 3 -14 7 -22 8 -9 1
-13 0 -10 -4z"/>
<path d="M4016 7158 c3 -5 10 -6 15 -3 13 9 11 12 -6 12 -8 0 -12 -4 -9 -9z"/>
<path d="M4186 7158 c3 -5 10 -6 15 -3 13 9 11 12 -6 12 -8 0 -12 -4 -9 -9z"/>
<path d="M4574 7162 c4 -3 14 -7 22 -8 9 -1 13 0 10 4 -4 3 -14 7 -22 8 -9 1
-13 0 -10 -4z"/>
<path d="M4826 7158 c3 -5 10 -6 15 -3 13 9 11 12 -6 12 -8 0 -12 -4 -9 -9z"/>
<path d="M5306 7158 c3 -5 10 -6 15 -3 13 9 11 12 -6 12 -8 0 -12 -4 -9 -9z"/>
<path d="M5416 7158 c3 -5 10 -6 15 -3 13 9 11 12 -6 12 -8 0 -12 -4 -9 -9z"/>
<path d="M5626 7158 c3 -5 10 -6 15 -3 13 9 11 12 -6 12 -8 0 -12 -4 -9 -9z"/>
<path d="M5854 7162 c4 -3 14 -7 22 -8 9 -1 13 0 10 4 -4 3 -14 7 -22 8 -9 1
-13 0 -10 -4z"/>
<path d="M2184 4526 c0 -15 6 -21 22 -21 12 0 20 3 17 8 -2 4 -11 7 -19 7 -8
0 -12 5 -9 10 4 6 12 7 18 4 7 -4 8 -3 4 1 -15 17 -33 12 -33 -9z"/>
<path d="M2189 4358 c-1 -7 0 -17 1 -23 2 -5 4 -23 5 -40 2 -16 3 -37 4 -45 1
-13 2 -13 11 0 6 9 5 17 -3 22 -9 5 -9 8 -1 8 7 0 11 11 10 24 0 13 -4 22 -7
20 -4 -2 -9 3 -12 10 -3 8 -1 16 6 19 8 2 8 5 -1 11 -7 4 -13 2 -13 -6z"/>
<path d="M2187 4213 c-11 -10 -8 -20 7 -26 8 -3 13 0 12 8 -3 19 -11 27 -19
18z"/>
<path d="M2209 4155 c-1 -3 -2 -8 -3 -12 -1 -5 -5 -14 -9 -20 -5 -8 -4 -13 2
-13 6 0 11 3 12 8 0 4 2 15 4 25 3 15 -3 26 -6 12z"/>
<path d="M2186 4078 c-15 -21 -15 -24 -1 -34 12 -9 13 -13 3 -17 -7 -3 -3 -4
9 -4 16 1 19 4 12 13 -6 8 -6 14 0 18 10 6 9 31 -1 41 -3 4 -13 -4 -22 -17z
m20 -5 c-2 -9 -9 -19 -17 -21 -11 -3 -11 -1 1 7 8 6 11 11 7 11 -5 0 -5 5 -2
10 9 15 14 12 11 -7z"/>
<path d="M6670 6045 c-12 -15 -4 -20 23 -16 7 1 11 -15 8 -33 -1 -5 5 -4 13 4
19 15 21 24 4 14 -7 -5 -9 -2 -5 8 8 22 -3 30 -21 15 -13 -10 -15 -9 -9 6 8
21 3 22 -13 2z"/>
<path d="M6740 6044 c-11 -12 -11 -15 0 -12 7 2 15 -3 18 -11 3 -9 0 -11 -8
-6 -9 5 -11 4 -6 -4 4 -6 12 -9 17 -6 12 8 11 35 -2 35 -5 0 -7 5 -4 10 10 16
-1 12 -15 -6z"/>
<path d="M6783 6025 c0 -14 3 -27 7 -30 4 -2 6 7 4 21 -3 35 -11 41 -11 9z"/>
<path d="M6810 5997 c0 -9 15 -17 42 -21 24 -4 53 -17 66 -29 22 -20 24 -20
21 -3 -5 26 -46 54 -91 62 -30 5 -38 3 -38 -9z"/>
<path d="M6810 5936 c0 -12 9 -16 36 -16 36 0 73 -15 86 -34 5 -7 8 -5 8 5 0
27 -37 51 -85 56 -37 5 -45 3 -45 -11z"/>
<path d="M6810 5875 c0 -11 11 -15 41 -15 22 0 49 -5 61 -11 29 -16 37 0 9 22
-29 24 -111 27 -111 4z"/>
<path d="M6810 5818 c0 -11 16 -17 62 -21 35 -3 65 -4 67 -1 12 12 -24 28 -74
32 -44 4 -55 2 -55 -10z"/>
<path d="M6810 5745 c0 -12 14 -15 65 -15 51 0 65 3 65 15 0 12 -14 15 -65 15
-51 0 -65 -3 -65 -15z"/>
<path d="M6858 5703 c-34 -3 -48 -8 -48 -19 0 -15 63 -20 108 -8 26 7 30 35 5
32 -10 -1 -39 -3 -65 -5z"/>
</g>
</svg>
