<?xml version="1.0" standalone="no"?>
<!DOCTYPE svg PUBLIC "-//W3C//DTD SVG 20010904//EN"
 "http://www.w3.org/TR/2001/REC-SVG-20010904/DTD/svg10.dtd">
<svg version="1.0" xmlns="http://www.w3.org/2000/svg"
 width="256.000000pt" height="256.000000pt" viewBox="0 0 256.000000 256.000000"
 preserveAspectRatio="xMidYMid meet">

<g transform="translate(0.000000,256.000000) scale(0.100000,-0.100000)"
fill="#000000" stroke="none">
<path d="M959 2495 c-15 -8 -30 -22 -34 -32 -5 -10 -11 -79 -15 -153 -8 -159
-36 -247 -91 -290 -131 -101 -225 -216 -288 -352 -62 -132 -76 -201 -75 -368
1 -128 4 -156 27 -233 32 -104 73 -190 132 -272 43 -61 139 -158 186 -188 62
-41 106 -169 113 -334 2 -61 9 -120 15 -132 20 -37 70 -43 374 -39 l289 3 24
28 c21 25 24 38 24 115 0 115 13 189 46 262 22 49 42 73 107 127 278 233 381
602 266 949 -53 159 -168 319 -292 409 -88 63 -116 137 -126 328 -10 198 22
181 -354 184 -248 2 -307 0 -328 -12z m492 -490 c202 -52 393 -223 474 -424
14 -34 33 -108 42 -163 14 -85 15 -115 5 -194 -38 -304 -246 -546 -532 -621
-86 -22 -243 -22 -330 1 -311 82 -530 372 -530 701 1 258 126 486 345 624 146
92 349 122 526 76z"/>
</g>
</svg>
